<svg xmlns="http://www.w3.org/2000/svg" viewBox="0 0 133.45 253.98">
  <defs>
    <style>
      .cls-1{fill:#fff}
    </style>
  </defs>
  <g id="Calque_2" data-name="Calque 2">
    <g id="Calque_1-2" data-name="Calque 1">
      <path class="cls-1" d="M1.69 34.44a14.74 14.74 0 0 0 2.41 4.37 7.54 7.54 0 0 0 6 2.84 4.89 4.89 0 0 0 3.35-1.24A4.37 4.37 0 0 0 14.84 37a4.89 4.89 0 0 0-1.44-3.49 27 27 0 0 0-4-2.82l-3.5-2.18a11.87 11.87 0 0 1-2.51-2 6.3 6.3 0 0 1-1.73-4.28A7 7 0 0 1 3.76 17a7.4 7.4 0 0 1 5.48-2.07 11 11 0 0 1 3.38.66 14.93 14.93 0 0 0 2.26.66 1.31 1.31 0 0 0 1-.34 2.71 2.71 0 0 0 .46-1h.77l.9 8.7h-1q-1-3.91-3.22-5.47a7.62 7.62 0 0 0-4.39-1.55 4.57 4.57 0 0 0-2.93 1 3.31 3.31 0 0 0-1.17 2.74 4 4 0 0 0 1 2.7 12.47 12.47 0 0 0 3 2.39l3.6 2.22a18.56 18.56 0 0 1 4.76 3.82A6.62 6.62 0 0 1 19 35.61 6.93 6.93 0 0 1 16.56 41a8.87 8.87 0 0 1-6.15 2.15 11.88 11.88 0 0 1-3.93-.72 14.86 14.86 0 0 0-2.34-.72 1 1 0 0 0-1 .46 2.63 2.63 0 0 0-.32 1H2L.73 34.44ZM24.09 15.49h23.19l.19 7h-1c-.48-2.2-1.08-3.63-1.83-4.29s-2.3-1-4.67-1h-2.23v20.91c0 1.57.25 2.55.73 2.93a6.84 6.84 0 0 0 3.2.74v.78h-12v-.78c1.76-.13 2.86-.41 3.29-.84s.65-1.53.65-3.28V17.17h-2.25c-2.25 0-3.79.33-4.6 1s-1.43 2.09-1.84 4.3h-1ZM47.25 42.55v-.77a3.45 3.45 0 0 0 2.42-1.16 30.18 30.18 0 0 0 2.73-5.52L60.91 15h.86l10.14 23.2a9.79 9.79 0 0 0 1.6 2.8 3.79 3.79 0 0 0 2 .74v.77H65.13v-.77a9.32 9.32 0 0 0 2.33-.38c.34-.15.52-.52.52-1.12a5.31 5.31 0 0 0-.2-1.05 11.66 11.66 0 0 0-.56-1.58l-1.63-3.92H54.86c-1.1 2.67-1.76 4.29-2 4.88a4.49 4.49 0 0 0-.28 1.43 1.45 1.45 0 0 0 .85 1.43 6.81 6.81 0 0 0 2 .35v.77Zm17.64-10.5L60.2 20.8l-4.65 11.25ZM78.5 41.78a6 6 0 0 0 2.92-.8c.46-.38.69-1.33.69-2.87V19.93c0-1.48-.22-2.44-.66-2.87a5.2 5.2 0 0 0-3-.8v-.77h11a21.71 21.71 0 0 1 9.42 1.84q6.94 3.29 6.94 11.79a14 14 0 0 1-1.24 5.81 12.14 12.14 0 0 1-3.76 4.65 12.92 12.92 0 0 1-3.32 1.82 22.45 22.45 0 0 1-7.71 1.15H78.5Zm8.22-1a4.11 4.11 0 0 0 2 .32 14.77 14.77 0 0 0 7.87-1.9q4.75-2.93 4.75-10 0-6.3-3.91-9.49A13.65 13.65 0 0 0 88.59 17a3.92 3.92 0 0 0-1.87.3c-.33.2-.49.64-.49 1.32v20.81a1.46 1.46 0 0 0 .49 1.32M109.48 41.78a6.05 6.05 0 0 0 2.94-.8c.45-.38.67-1.33.67-2.87V19.93a4.26 4.26 0 0 0-.66-2.84 5 5 0 0 0-3-.83v-.77h21.77l.19 5.8h-1c-.35-1.81-.87-3-1.56-3.52s-2.23-.8-4.62-.8h-5.63c-.61 0-1 .1-1.13.3a2 2 0 0 0-.21 1.09v9.18h6.32c1.75 0 2.87-.26 3.35-.78a6.71 6.71 0 0 0 1.09-3.15h1v9.47h-1a7 7 0 0 0-1.18-3.15c-.49-.52-1.59-.78-3.33-.78h-6.32v10.14c0 .81.26 1.29.77 1.44a26.89 26.89 0 0 0 4.62.22 15.63 15.63 0 0 0 6.14-.9c1.33-.59 2.52-2 3.6-4.32h1.11l-1.83 6.82h-22.1ZM0 66a3.39 3.39 0 0 0 1.86-.55 3.38 3.38 0 0 0 .36-2v-11a2.68 2.68 0 0 0-.4-1.75A3.12 3.12 0 0 0 0 50.19v-.48h13.43l.1 3.61h-.71a3.07 3.07 0 0 0-1-2.19A6.07 6.07 0 0 0 9 50.67H5.58c-.34 0-.55.06-.64.18a1.09 1.09 0 0 0-.14.68v5.62h3.61a3.06 3.06 0 0 0 2.08-.48 4.17 4.17 0 0 0 .72-1.94h.58v5.83h-.58a4.32 4.32 0 0 0-.73-1.94 3.11 3.11 0 0 0-2.07-.47H4.8v5.54a2.49 2.49 0 0 0 .42 1.76 3.48 3.48 0 0 0 1.87.5v.48H0ZM15.43 66a2.9 2.9 0 0 0 1.81-.56 3.54 3.54 0 0 0 .35-2V52.45a2.7 2.7 0 0 0-.39-1.74 3 3 0 0 0-1.77-.52v-.48h7a10.35 10.35 0 0 1 3.65.55 3.87 3.87 0 0 1 2.76 3.87A3.55 3.55 0 0 1 27.6 57a6.71 6.71 0 0 1-3.34 1.33l5.21 6.4a3.86 3.86 0 0 0 1 .85 3.53 3.53 0 0 0 1.23.34v.48h-4.1l-6.34-7.8-1.09.07v5c0 .93.14 1.52.43 1.77a3.58 3.58 0 0 0 1.85.5v.48h-7Zm8.64-8.7a3.1 3.1 0 0 0 2-3.13 3 3 0 0 0-1.81-3 6.46 6.46 0 0 0-2.56-.43 3.24 3.24 0 0 0-1.32.16c-.16.11-.24.34-.24.72v6.24a13.17 13.17 0 0 0 3.9-.54M33.74 66.43V66a2.05 2.05 0 0 0 1.44-.73 19.41 19.41 0 0 0 1.67-3.42l5.22-12.38h.56l6.28 14.31a6.16 6.16 0 0 0 1 1.76 2.5 2.5 0 0 0 1.26.46v.48h-6.43V66a5.59 5.59 0 0 0 1.44-.24c.21-.1.32-.32.32-.69a3.13 3.13 0 0 0-.12-.65 7.65 7.65 0 0 0-.34-1L45 61h-6.63c-.66 1.65-1 2.66-1.18 3a2.69 2.69 0 0 0-.19.86.91.91 0 0 0 .51.89 5 5 0 0 0 1.21.22v.48Zm10.85-6.51L41.7 53l-2.9 6.94ZM53.27 66a3 3 0 0 0 2-.71 4.71 4.71 0 0 0 .44-2.55V51.58l-.35-.41a2.68 2.68 0 0 0-.94-.8 3.46 3.46 0 0 0-1.16-.18v-.48h4.28l9.8 12.09v-8.39a4 4 0 0 0-.62-2.69 3.09 3.09 0 0 0-1.8-.53v-.48h5.93v.48a2.94 2.94 0 0 0-1.93.71 4.29 4.29 0 0 0-.49 2.54v13.28H68L56.81 52.88v9.82a4.16 4.16 0 0 0 .61 2.7 3.17 3.17 0 0 0 1.78.6v.48h-5.93ZM91.23 66.43V66a2.06 2.06 0 0 0 1.45-.73 19.66 19.66 0 0 0 1.66-3.42l5.23-12.38h.56l6.28 14.31a6.22 6.22 0 0 0 1 1.76 2.5 2.5 0 0 0 1.26.46v.48h-6.42V66a5.78 5.78 0 0 0 1.44-.24c.21-.1.32-.32.32-.69a3.13 3.13 0 0 0-.12-.65 7.78 7.78 0 0 0-.35-1l-1-2.43h-6.67c-.66 1.65-1.05 2.66-1.18 3a2.69 2.69 0 0 0-.19.86.91.91 0 0 0 .51.89 5 5 0 0 0 1.2.22v.48Zm10.86-6.51L99.19 53l-2.89 6.92ZM111 66a4.24 4.24 0 0 0 2-.46c.3-.24.45-.83.45-1.8V52.45a2.49 2.49 0 0 0-.45-1.79 3.57 3.57 0 0 0-2-.47v-.48h7.41v.48a3.57 3.57 0 0 0-2 .47 2.49 2.49 0 0 0-.45 1.79v11.24c0 1 .15 1.56.45 1.8a4.24 4.24 0 0 0 2 .46v.48H111ZM122 61.4a9.33 9.33 0 0 0 1.5 2.72 4.73 4.73 0 0 0 3.74 1.76 3.11 3.11 0 0 0 2.1-.77 2.67 2.67 0 0 0 .88-2.14 3 3 0 0 0-.89-2.15 15.69 15.69 0 0 0-2.45-1.74l-2.16-1.35a7.54 7.54 0 0 1-1.56-1.26 3.89 3.89 0 0 1-1.06-2.65 4.33 4.33 0 0 1 1.27-3.19 4.51 4.51 0 0 1 3.36-1.28 6.77 6.77 0 0 1 2.08.41 8.49 8.49 0 0 0 1.38.41.8.8 0 0 0 .65-.21 1.39 1.39 0 0 0 .28-.61h.52l.54 5.38h-.61a5.63 5.63 0 0 0-2-3.38 4.6 4.6 0 0 0-2.69-1 2.77 2.77 0 0 0-1.8.62 2 2 0 0 0-.78 1.7 2.46 2.46 0 0 0 .6 1.67 7.54 7.54 0 0 0 1.84 1.47l2.22 1.38a11.41 11.41 0 0 1 2.94 2.35 4.11 4.11 0 0 1 .84 2.57 4.2 4.2 0 0 1-1.5 3.31 5.55 5.55 0 0 1-3.83 1.34 7.37 7.37 0 0 1-2.45-.45 10.17 10.17 0 0 0-1.47-.45.64.64 0 0 0-.6.29 1.82 1.82 0 0 0-.2.61h-.55l-.74-5.39ZM88.15 63.15a10.77 10.77 0 0 1-2.08 1.6 7.23 7.23 0 0 1-3.61.94 5.71 5.71 0 0 1-4.48-2 7.91 7.91 0 0 1-1.76-5.39 9 9 0 0 1 1.68-5.77 5.28 5.28 0 0 1 4.33-2.09 5.05 5.05 0 0 1 4.17 1.95 8.21 8.21 0 0 1 1.32 2.72h.58l-.23-5.67h-.51a1 1 0 0 1-.45.61 1.19 1.19 0 0 1-.67.2 13.37 13.37 0 0 1-1.62-.4 10.38 10.38 0 0 0-2.82-.43 8.3 8.3 0 0 0-6.39 2.63 8.7 8.7 0 0 0-2.33 6.18 8.58 8.58 0 0 0 2.2 6 8.34 8.34 0 0 0 6.41 2.6V69h.58v-2.19a8.52 8.52 0 0 0 6.14-3.19Z"/>
      <path d="M66.82 254s-25.86-23-39.5-36-21.63-26.8-21.4-45.6 9.88-19.52 8.47-35-12.93-21.19-12.93-21.19l19.75-29.16s8.7 4.47 17.16 1.65c6.17-2 11.05-9.17 11.05-9.17h17.4Z" style="fill:#1d3259"/>
      <path d="M66.82 79.53h17.4s4.88 7.12 11 9.17c8.46 2.82 17.16-1.65 17.16-1.65l19.75 29.16s-11.52 5.64-12.93 21.16 8.23 16.22 8.46 35S120 205.08 106.32 218s-39.5 36-39.5 36Z" style="fill:#e4003c"/>
      <path class="cls-1" d="M93.31 94.57c-5.37-1.79-9.66-6-12.08-8.85H52.41c-2.41 2.83-6.71 7.06-12.08 8.85a28.42 28.42 0 0 1-16.72 0c-3.26 4.8-9.87 14.57-13.71 20.23a33.16 33.16 0 0 1 10.65 22c.11 1.24.17 2.4.17 3.51 0 7.4-2.33 12-4.42 16.12s-4.09 8.07-4.19 16v.76c0 15.28 5.85 27.37 19.47 40.29 10.18 9.64 27.4 25.14 35.24 32.16 7.84-7 25.06-22.52 35.24-32.16 13.62-12.92 19.48-25 19.48-40.3v-.75c-.1-8-2.09-11.9-4.19-16s-4.41-8.72-4.41-16.12c0-1.11 0-2.27.16-3.51a33.21 33.21 0 0 1 10.65-22c-3.84-5.66-10.45-15.43-13.71-20.23a28.42 28.42 0 0 1-16.72 0m16.7 42c-.12 1.33-.18 2.58-.18 3.77 0 8.16 2.61 13.3 4.75 17.54 2 4 3.77 7.42 3.86 14.68v.7c0 14.36-5.56 25.78-18.51 38.06-9.33 8.85-24.62 22.64-33.11 30.26-8.49-7.62-23.78-21.41-33.11-30.26C20.76 199 15.2 187.58 15.2 173.22v-.7c.09-7.26 1.84-10.7 3.85-14.68 2.15-4.24 4.76-9.38 4.76-17.54 0-1.19-.06-2.44-.18-3.77a37.13 37.13 0 0 0-9.71-22.17l11-16.3a30.63 30.63 0 0 0 16.34-.55c5.4-1.8 9.74-5.65 12.53-8.69h26c2.79 3 7.13 6.89 12.52 8.69a30.66 30.66 0 0 0 16.35.55l11 16.3a37.13 37.13 0 0 0-9.66 22.17"/>
      <path class="cls-1" d="M55.87 123.78v18h-.4a28.54 28.54 0 0 0-1.81-8.26 14 14 0 0 0-3.45-5 6.52 6.52 0 0 0-5.33-2.23 6.32 6.32 0 0 0-5.08 2.4 7.5 7.5 0 0 0-1.6 5.17 8.1 8.1 0 0 0 1.21 4.35q1.74 2.9 8.26 7.72a55.07 55.07 0 0 1 7.26 6 14.68 14.68 0 0 1 3 5 17.28 17.28 0 0 1 1.05 6c0 5.68-1.12 8.4-3.34 11.27a10.39 10.39 0 0 1-8.64 4.25 12.79 12.79 0 0 1-3.1-.36 24.85 24.85 0 0 1-3.59-1.43 12.2 12.2 0 0 0-3.45-1.25 1.28 1.28 0 0 0-1.1.59 6.12 6.12 0 0 0-.61 2.45h-.35v-18h.38a32.79 32.79 0 0 0 2 8.43 11.34 11.34 0 0 0 3.77 4.65c1.69 1.24 3.42 2.3 5.44 2.3 2.32 0 4.49-.1 5.84-1.8a7.52 7.52 0 0 0 1.77-5.16 8.64 8.64 0 0 0-.77-3.9 11.15 11.15 0 0 0-2.39-3.67 64.38 64.38 0 0 0-6-4.9 58.4 58.4 0 0 1-6.92-6 16 16 0 0 1-3.09-4.93 16.17 16.17 0 0 1-1.06-5.93c0-6 1-9 3.14-11.72a9.66 9.66 0 0 1 8-4.06 12.48 12.48 0 0 1 6.42 2.06 5.27 5.27 0 0 0 2.21 1 1.43 1.43 0 0 0 1.18-.6 5.82 5.82 0 0 0 .74-2.44ZM75.67 176.74c4.51-.46 4-2.49 4-8.11v-35.95c0-5.25-1.28-6.76-5-7.22v-.52h27.81l.39 14.95h-.47c-.56-6.93-3.36-9.47-4.86-10.51-2.75-1.9-8-2-9.25-.92-.36.32-.46 1.09-.46 2.17v18H89c3.4 0 4.35-.67 5.32-2.52a14.24 14.24 0 0 0 1.77-7.26h.53v22.78h-.53a14 14 0 0 0-1.77-7.17c-1.18-2.11-2.5-2.63-5.32-2.61h-1.2v17.65c0 5.22 1.44 6.72 5.18 7.22v.48H75.67ZM1.46 0h130.72v1.54H1.46z"/>
    </g>
  </g>
</svg>
