<svg xmlns="http://www.w3.org/2000/svg" viewBox="0 0 1037 1075" width="1037" height="1075" preserveAspectRatio="xMidYMid meet" style="width: 100%; height: 100%;"><defs><clipPath id="__lottie_element_227"><rect width="1037" height="1075" x="0" y="0"></rect></clipPath></defs><g clip-path="url(#__lottie_element_227)"><g style="display: block;" transform="matrix(1.0097757577896118,0.019864415749907494,-0.020648876205086708,1.0496525764465332,68.60359191894531,242.16964721679688)" opacity="1"><g opacity="1" transform="matrix(1,0,0,1,210.5489959716797,244.90899658203125)"><path fill="rgb(29,50,89)" fill-opacity="1" d=" M-210.2989959716797,-123.197998046875 C-210.2989959716797,-123.197998046875 -40.819000244140625,-192.27200317382812 -12.383999824523926,-8.289999961853027 C19.09000015258789,195.35899353027344 108.38700103759766,160.74099731445312 210.2989959716797,178.3730010986328 C210.2989959716797,178.3730010986328 64.68800354003906,150.57400512695312 54.98400115966797,22.423999786376953 C47.018001556396484,-82.78600311279297 32.63999938964844,-195.36000061035156 -106.15299987792969,-180.9199981689453 C-106.15299987792969,-180.9199981689453 -143.8260040283203,-173.47799682617188 -210.2989959716797,-123.197998046875z"></path></g><g opacity="1" transform="matrix(1,0,0,1,254.94000244140625,226.29299926757812)"><path fill="rgb(255,255,255)" fill-opacity="1" d=" M-165.18600463867188,-153.31100463867188 C-165.18600463867188,-153.31100463867188 -27.68000030517578,-193.21499633789062 -14.418000221252441,-7.520999908447266 C-2.609999895095825,157.81199645996094 63.27299880981445,179.34800720214844 165.18600463867188,196.97999572753906 C165.18600463867188,196.97999572753906 81.82599639892578,148.9510040283203 72.12200164794922,20.801000595092773 C64.15599822998047,-84.40799713134766 49.77799987792969,-196.97999572753906 -89.01499938964844,-182.5399932861328 C-89.01499938964844,-182.5399932861328 -120.54100036621094,-175.64999389648438 -165.18600463867188,-153.31100463867188z"></path></g><g opacity="1" transform="matrix(1,0,0,1,285.4179992675781,210.52499389648438)"><path fill="rgb(228,0,60)" fill-opacity="1" d=" M-131.85299682617188,-154.1739959716797 C-131.85299682617188,-154.1739959716797 -11.383999824523926,-210.27499389648438 1.878000020980835,-24.58099937438965 C13.685999870300293,140.75100708007812 29.940000534057617,192.64199829101562 131.85299682617188,210.2740020751953 C131.85299682617188,210.2740020751953 59.8849983215332,160.66600036621094 50.180999755859375,32.51599884033203 C42.2140007019043,-72.69400024414062 86.21499633789062,-206.49099731445312 -52.57899856567383,-192.05099487304688 C-52.57899856567383,-192.05099487304688 -131.58399963378906,-175.38900756835938 -131.85299682617188,-154.1739959716797z"></path></g></g><g style="display: block;" transform="matrix(1.0097757577896118,0.019864415749907494,-0.020648876205086708,1.0496525764465332,433.95050048828125,-27.624568939208984)" opacity="1"><g opacity="1" transform="matrix(1,0,0,1,334.9649963378906,347.6050109863281)"><path fill="rgb(228,0,60)" fill-opacity="1" d=" M-278.302001953125,334.6910095214844 C-278.302001953125,334.6910095214844 -224.67100524902344,347.3550109863281 -209.6009979248047,259.53900146484375 C-197.9669952392578,191.75100708007812 -225.0500030517578,14.217000007629395 -149.23599243164062,-84.91699981689453 C-73.4219970703125,-184.0500030517578 46.00899887084961,-47.57699966430664 117.83200073242188,-43.23500061035156 C231.2760009765625,-36.375 285.06500244140625,-300.3789978027344 285.65899658203125,-347.35400390625 C285.65899658203125,-347.35400390625 289.3210144042969,-196.82200622558594 289.3210144042969,-196.82200622558594 C289.3210144042969,-196.82200622558594 262.8169860839844,-94.19499969482422 229.25,-50.31999969482422 C150.83999633789062,52.16999816894531 21.040000915527344,-61.96200180053711 -57.70600128173828,-53.952999114990234 C-136.45199584960938,-45.94300079345703 -155.0659942626953,52.89400100708008 -150.8000030517578,119.33599853515625 C-148.08799743652344,161.58099365234375 -158.7949981689453,241.84800720214844 -193.06100463867188,292.4360046386719 C-212.68899536132812,321.4129943847656 -240.0449981689453,340.6510009765625 -277.0379943847656,337.42999267578125 C-277.0379943847656,337.42999267578125 -278.302001953125,334.6910095214844 -278.302001953125,334.6910095214844z"></path></g><g opacity="1" transform="matrix(1,0,0,1,306.75799560546875,430.1050109863281)"><path fill="rgb(29,50,89)" fill-opacity="1" d=" M107.822998046875,-114.27999877929688 C-74.4749984741211,-178.6199951171875 -84.41500091552734,-114.86299896240234 -104.17400360107422,-6.339000225067139 C-118.22799682617188,70.85600280761719 -116.3479995727539,153.66700744628906 -155.781005859375,207.75900268554688 C-231.79299926757812,272.0669860839844 -236.98500061035156,251.9149932861328 -306.50799560546875,249.8800048828125 C-258.4729919433594,255.0469970703125 -243.7449951171875,258.2900085449219 -223.50399780273438,257.35400390625 C-200.80599975585938,257.6669921875 -96.14299774169922,249.98300170898438 -68.50700378417969,80.72799682617188 C-10.899999618530273,-272.0669860839844 319.9930114746094,92.52799987792969 315.2659912109375,-100.61199951171875 C315.2659912109375,-100.61199951171875 316.56500244140625,-203.24200439453125 316.56500244140625,-203.24200439453125 C316.56500244140625,-203.24200439453125 217.96200561523438,-75.40699768066406 107.822998046875,-114.27999877929688z"></path></g><g opacity="1" transform="matrix(1,0,0,1,322.2879943847656,423.9419860839844)"><path fill="rgb(255,255,255)" fill-opacity="1" d=" M-290.97900390625,257.1990051269531 C-290.97900390625,257.1990051269531 -213.72000122070312,287.35198974609375 -160.64100646972656,208.17300415039062 C-129.41099548339844,161.5850067138672 -116.0979995727539,84.23200225830078 -113.61900329589844,43.64799880981445 C-111.04199981689453,1.465000033378601 -87.91000366210938,-140.15699768066406 33.314998626708984,-106.58599853515625 C281.81500244140625,-37.76900100708008 307.52801513671875,-130.22000122070312 301.0360107421875,-252.88400268554688 C301.0360107421875,-252.88400268554688 302.34698486328125,-287.35198974609375 302.34698486328125,-287.35198974609375 C302.34698486328125,-287.35198974609375 281.4849853515625,-101.98999786376953 135.9530029296875,-101.98999786376953 C52.72100067138672,-101.98999786376953 -80.35299682617188,-204.0959930419922 -126.77400207519531,-87.08200073242188 C-185.63299560546875,61.28499984741211 -124.1500015258789,189.73899841308594 -225.18800354003906,250.9340057373047 C-261.53399658203125,272.9469909667969 -282.4200134277344,253.78399658203125 -290.97900390625,257.1990051269531z"></path></g></g><g style="display: block;" transform="matrix(1.0097757577896118,0.019864415749907494,-0.020648876205086708,1.0496525764465332,-3.4576709270477295,266.35565185546875)" opacity="1"><g opacity="1" transform="matrix(1,0,0,1,190.82699584960938,412.2439880371094)"><path fill="rgb(29,50,89)" fill-opacity="1" d=" M187.2790069580078,375.489990234375 C187.2790069580078,375.489990234375 146.0989990234375,375.6510009765625 146.0989990234375,375.6510009765625 C91.41600036621094,238.70399475097656 -121.97699737548828,40.145999908447266 -159.3769989013672,-93.49400329589844 C-190.57699584960938,-204.99400329589844 -161.3769989013672,-273.40399169921875 -119.68699645996094,-314.92401123046875 C-119.677001953125,-314.9339904785156 -119.677001953125,-314.9339904785156 -119.66699981689453,-314.9440002441406 C-87.71700286865234,-346.78399658203125 -48.426998138427734,-362.8340148925781 -23.37700080871582,-370.3940124511719 C-23.23699951171875,-370.4440002441406 -23.10700035095215,-370.4840087890625 -22.966999053955078,-370.52398681640625 C-20.367000579833984,-371.3139953613281 -17.937000274658203,-372.0039978027344 -15.677000045776367,-372.614013671875 C-15.656999588012695,-372.614013671875 -15.647000312805176,-372.614013671875 -15.626999855041504,-372.6239929199219 C-15.626999855041504,-372.6239929199219 -15.616999626159668,-372.6239929199219 -15.616999626159668,-372.6239929199219 C-16.256999969482422,-372.28399658203125 -16.886999130249023,-371.9540100097656 -17.53700065612793,-371.614013671875 C-37.57699966430664,-361.0639953613281 -58.82699966430664,-346.2539978027344 -76.83699798583984,-325.7139892578125 C-113.81700134277344,-283.5140075683594 -137.11700439453125,-217.0540008544922 -108.06700134277344,-113.27400207519531 C-68.8270034790039,26.945999145507812 132.031005859375,238.47500610351562 187.2790069580078,375.489990234375z"></path></g><g opacity="1" transform="matrix(1,0,0,1,234.2830047607422,401.322998046875)"><path fill="rgb(255,255,255)" fill-opacity="1" d=" M180.572998046875,386.2669982910156 C180.572998046875,386.2669982910156 143.822998046875,386.4110107421875 143.822998046875,386.4110107421875 C88.57499694824219,249.39599609375 -112.28299713134766,37.86600112915039 -151.5229949951172,-102.35399627685547 C-180.572998046875,-206.13400268554688 -157.27200317382812,-272.593994140625 -120.29199981689453,-314.79400634765625 C-102.28199768066406,-335.3340148925781 -81.03299713134766,-350.1440124511719 -60.99300003051758,-360.6940002441406 C-60.35300064086914,-361.03399658203125 -59.7130012512207,-361.3739929199219 -59.073001861572266,-361.7040100097656 C-59.073001861572266,-361.7040100097656 -59.053001403808594,-361.7040100097656 -59.053001403808594,-361.7040100097656 C-59.042999267578125,-361.7040100097656 -59.03300094604492,-361.7040100097656 -59.02299880981445,-361.7139892578125 C-34.233001708984375,-374.4939880371094 -11.522000312805176,-380.8039855957031 0.5180000066757202,-383.54400634765625 C-2.931999921798706,-382.0039978027344 -6.453000068664551,-380.343994140625 -10.02299976348877,-378.53399658203125 C-10.032999992370605,-378.53399658203125 -10.032999992370605,-378.52398681640625 -10.043000221252441,-378.52398681640625 C-10.043000221252441,-378.52398681640625 -10.053000450134277,-378.52398681640625 -10.053000450134277,-378.52398681640625 C-18.71299934387207,-374.17401123046875 -27.663000106811523,-369.03399658203125 -36.53300094604492,-362.9739990234375 C-36.53300094604492,-362.9739990234375 -36.542999267578125,-362.9739990234375 -36.542999267578125,-362.9739990234375 C-36.542999267578125,-362.9739990234375 -36.553001403808594,-362.9739990234375 -36.553001403808594,-362.9639892578125 C-39.632999420166016,-360.864013671875 -42.69300079345703,-358.6440124511719 -45.74300003051758,-356.3039855957031 C-59.722999572753906,-345.614013671875 -73.16200256347656,-332.4840087890625 -84.5719985961914,-316.41400146484375 C-114.71199798583984,-273.9639892578125 -130.64300537109375,-210.98399353027344 -104.65299987792969,-118.10399627685547 C-63.87300109863281,27.59600067138672 125.28299713134766,250.1820068359375 180.572998046875,386.2669982910156z"></path></g><g opacity="1" transform="matrix(1,0,0,1,286.2590026855469,392.5589904785156)"><path fill="rgb(228,0,60)" fill-opacity="1" d=" M182.6199951171875,394.82000732421875 C182.6199951171875,394.82000732421875 128.5959930419922,395.031005859375 128.5959930419922,395.031005859375 C73.30599975585938,258.9460144042969 -115.8499984741211,36.361000061035156 -156.6300048828125,-109.33899688720703 C-182.6199951171875,-202.218994140625 -166.69000244140625,-265.1990051269531 -136.5500030517578,-307.64898681640625 C-125.13999938964844,-323.718994140625 -111.6989974975586,-336.8489990234375 -97.71900177001953,-347.53900146484375 C-94.66899871826172,-349.8789978027344 -91.5999984741211,-352.0989990234375 -88.5199966430664,-354.2090148925781 C-88.5199966430664,-354.2090148925781 -88.51000213623047,-354.2090148925781 -88.51000213623047,-354.2090148925781 C-79.63999938964844,-360.2690124511719 -70.69000244140625,-365.40899658203125 -62.029998779296875,-369.7590026855469 C-62.029998779296875,-369.7590026855469 -62.02000045776367,-369.7590026855469 -62.02000045776367,-369.7590026855469 C-58.439998626708984,-371.5690002441406 -54.91999816894531,-373.239013671875 -51.459999084472656,-374.77899169921875 C-50.209999084472656,-375.3389892578125 -48.959999084472656,-375.8789978027344 -47.72999954223633,-376.40899658203125 C-47.72999954223633,-376.40899658203125 -47.720001220703125,-376.41900634765625 -47.720001220703125,-376.41900634765625 C-19.459999084472656,-388.47900390625 2.940999984741211,-392.0790100097656 4.390999794006348,-392.3089904785156 C3.0810000896453857,-391.968994140625 -14.140000343322754,-387.4490051269531 -34.66999816894531,-374.27899169921875 C-38.70000076293945,-371.6990051269531 -42.86000061035156,-368.78900146484375 -47.040000915527344,-365.4989929199219 C-51.9900016784668,-361.6189880371094 -56.97999954223633,-357.239013671875 -61.869998931884766,-352.27899169921875 C-64.22000122070312,-349.8890075683594 -66.55999755859375,-347.3590087890625 -68.8499984741211,-344.6889953613281 C-79.29000091552734,-332.52899169921875 -88.81900024414062,-317.47900390625 -95.7490005493164,-298.9389953613281 C-110.45899963378906,-259.64898681640625 -113.51000213623047,-204.72900390625 -88.87999725341797,-128.48899841308594 C-38.79999923706055,26.520999908447266 129.74000549316406,263.8160095214844 182.6199951171875,394.82000732421875z"></path></g></g></g></svg>