<svg xmlns="http://www.w3.org/2000/svg" viewBox="0 0 1080 914" width="1080" height="914" preserveAspectRatio="xMidYMid meet" style="width: 100%; height: 100%;"><defs><clipPath id="__lottie_element_236"><rect width="1080" height="914" x="0" y="0"></rect></clipPath></defs><g clip-path="url(#__lottie_element_236)"><g style="display: block;" transform="matrix(0.9997374415397644,0.022914456203579903,-0.022914456203579903,0.9997374415397644,-28.276405334472656,-53.756744384765625)" opacity="1"><g opacity="1" transform="matrix(1,0,0,1,257.39801025390625,222.2259979248047)"><path fill="rgb(29,50,89)" fill-opacity="1" d=" M-246.37600708007812,162.36199951171875 C-61.38600158691406,-89.09500122070312 178.01600646972656,-184.6540069580078 208.62600708007812,-81.52200317382812 C208.62600708007812,-81.52200317382812 224.83200073242188,-20.45199966430664 224.83200073242188,-20.45199966430664 C189.0970001220703,-170.0659942626953 -101.74199676513672,-10.517000198364258 -242.47799682617188,196.5050048828125"></path></g><g opacity="1" transform="matrix(1,0,0,1,266.52099609375,233.07200622558594)"><path fill="rgb(255,255,255)" fill-opacity="1" d=" M199.5019989013672,-92.36799621582031 C199.5019989013672,-92.36799621582031 214.30299377441406,-36.59400177001953 214.30299377441406,-36.59400177001953 C214.802001953125,-34.862998962402344 215.27699279785156,-33.10599899291992 215.70899963378906,-31.297000885009766 C215.70899963378906,-31.297000885009766 214.30299377441406,-36.59400177001953 214.30299377441406,-36.59400177001953 C176.82899475097656,-166.79299926757812 -75.30000305175781,-42.895999908447266 -216.62899780273438,137.78399658203125 C-234.9949951171875,162.1300048828125 -246.1790008544922,178.14199829101562 -246.1790008544922,178.14199829101562 C-246.1790008544922,178.14199829101562 -238.6020050048828,203.66400146484375 -238.6020050048828,203.66400146484375 C-201.31900024414062,145.33099365234375 163.61500549316406,-217.82699584960938 229.39500427246094,16.725000381469727 C229.39500427246094,16.725000381469727 199.5019989013672,-92.36799621582031 199.5019989013672,-92.36799621582031z"></path></g><g opacity="1" transform="matrix(1,0,0,1,274.0639953613281,244.06100463867188)"><path fill="rgb(228,0,60)" fill-opacity="1" d=" M220.02499389648438,-0.36800000071525574 C198.52999877929688,-68.44599914550781 158.57699584960938,-78.74700164794922 100.30599975585938,-71.24400329589844 C77.06900024414062,-66.3759994506836 46.483001708984375,-49.97999954223633 22.867000579833984,-39.20500183105469 C18.042999267578125,-37.00400161743164 8.725000381469727,-32.178001403808594 3.9179999828338623,-29.746999740600586 C-68.7770004272461,9.173999786376953 -142.1199951171875,69.697998046875 -188.58700561523438,121.4260025024414 C-224.2220001220703,162.09800720214844 -246.1230010986328,192.6439971923828 -246.14500427246094,192.6739959716797 C-246.14500427246094,192.6739959716797 -246.14500427246094,192.6739959716797 -246.14500427246094,192.6750030517578 C-246.14500427246094,192.6750030517578 -236.3730010986328,211.3040008544922 -236.3730010986328,211.3040008544922 C-231.97799682617188,206.3780059814453 144.42799377441406,-202.1009979248047 233.06900024414062,46.62300109863281 C233.06900024414062,46.62300109863281 220.02499389648438,-0.36800000071525574 220.02499389648438,-0.36800000071525574z"></path></g></g><g style="display: block;" transform="matrix(0.9997374415397644,0.022914456203579903,-0.022914456203579903,0.9997374415397644,201.62200927734375,84.23147583007812)" opacity="1"><g opacity="1" transform="matrix(1,0,0,1,129.69700622558594,270.7460021972656)"><path fill="rgb(29,50,89)" fill-opacity="1" d=" M111.49500274658203,-242.16400146484375 C111.49500274658203,-242.16400146484375 122.2229995727539,-192.9080047607422 122.2229995727539,-192.9080047607422 C122.2229995727539,-192.9080047607422 139.7530059814453,-150.08399963378906 58.24700164794922,-49.858001708984375 C-23.259000778198242,50.36800003051758 -91.58799743652344,197.72300720214844 -22.39699935913086,326.59600830078125 C-22.39699935913086,326.59600830078125 -155.56399536132812,220.25399780273438 -72,59.09299850463867 C-19.388999938964844,-42.37300109863281 116.58899688720703,-152.39500427246094 111.49500274658203,-242.16400146484375z"></path></g><g opacity="1" transform="matrix(1,0,0,1,143.4409942626953,331.40399169921875)"><path fill="rgb(255,255,255)" fill-opacity="1" d=" M123.51799774169922,-193.29400634765625 C123.51799774169922,-193.29400634765625 109.55000305175781,-249.01300048828125 109.55000305175781,-249.01300048828125 C111.572998046875,-235.61900329589844 110.8270034790039,-192.072998046875 44.50199890136719,-110.51499938964844 C-37.00400161743164,-10.288999557495117 -105.33200073242188,137.06500244140625 -36.14099884033203,265.9389953613281 C-36.14099884033203,265.9389953613281 -36.60599899291992,265.3320007324219 -37.42499923706055,264.20001220703125 C-37.42499923706055,264.20001220703125 3.8919999599456787,334.34100341796875 3.8919999599456787,334.34100341796875 C-80.1449966430664,192.11099243164062 7.561999797821045,2.0399999618530273 97.13500213623047,-115.63099670410156 C131.38900756835938,-160.6300048828125 123.51799774169922,-193.29400634765625 123.51799774169922,-193.29400634765625z"></path></g><g opacity="1" transform="matrix(1,0,0,1,162.26300048828125,393.45599365234375)"><path fill="rgb(228,0,60)" fill-opacity="1" d=" M114.54399871826172,-188.0659942626953 C120.86699676513672,-207.06199645996094 110.59500122070312,-239.3560028076172 104.7699966430664,-254.99400329589844 C105.48999786376953,-251.37399291992188 110.51000213623047,-219.97900390625 78.31300354003906,-177.68299865722656 C-9.984999656677246,-61.6870002746582 -95.51300048828125,125.63300323486328 -18.388999938964844,266.2070007324219 C-18.388999938964844,266.2070007324219 24.433000564575195,341.49700927734375 24.433000564575195,341.49700927734375 C-1.1649999618530273,291.6990051269531 -17.900999069213867,130.61399841308594 -0.7360000014305115,60.233001708984375 C32.08100128173828,-74.33000183105469 99.4260025024414,-142.6479949951172 114.54399871826172,-188.0659942626953z"></path></g></g><g style="display: block;" transform="matrix(0.9997374415397644,0.022914456203579903,-0.022914456203579903,0.9997374415397644,250.15179443359375,328.4426574707031)" opacity="1"><g opacity="1" transform="matrix(1,0,0,1,416.135009765625,188.15499877929688)"><path fill="rgb(29,50,89)" fill-opacity="1" d=" M-417.59600830078125,99.31800079345703 C-394.5190124511719,137.0570068359375 -371.52801513671875,174.41200256347656 -351.0220031738281,200.67999267578125 C-351.0220031738281,200.67999267578125 -324.07501220703125,223.11000061035156 -281.3590087890625,217.16600036621094 C-132.51400756835938,196.45399475097656 -68.47699737548828,24.792999267578125 108.64099884033203,-26.67099952697754 C329.1940002441406,-90.75599670410156 454.0450134277344,-23.989999771118164 454.0450134277344,-23.989999771118164 C454.0450134277344,-23.989999771118164 439.49200439453125,-171.82000732421875 439.49200439453125,-171.82000732421875 C439.49200439453125,-171.82000732421875 228.76800537109375,-209.90499877929688 67.91699981689453,-139.43699645996094 C-92.93399810791016,-68.96900177001953 -334.5299987792969,216.67300415039062 -417.59600830078125,99.31800079345703z"></path></g><g opacity="1" transform="matrix(1,0,0,1,444.3710021972656,278.42498779296875)"><path fill="rgb(255,255,255)" fill-opacity="1" d=" M80.40399932861328,-116.94100189208984 C-96.71399688720703,-65.47699737548828 -160.75,106.18699645996094 -309.593994140625,126.89700317382812 C-352.30999755859375,132.83999633789062 -379.25799560546875,110.41000366210938 -379.25799560546875,110.41000366210938 C-379.3940124511719,110.23500061035156 -379.5320129394531,110.05500030517578 -379.66900634765625,109.87999725341797 C-379.66900634765625,109.87999725341797 -337.4070129394531,172.6649932861328 -337.4070129394531,172.6649932861328 C-337.4070129394531,172.6649932861328 -304.6210021972656,192.802001953125 -264.4949951171875,189.51400756835938 C-198.0749969482422,184.0709991455078 -161.37399291992188,121.82499694824219 -54.08700180053711,40.444000244140625 C79.68199920654297,-61.025001525878906 264.9580078125,-32.303001403808594 421.2139892578125,-3.9619998931884766 C421.2139892578125,-3.9619998931884766 425.8089904785156,-114.26000213623047 425.8089904785156,-114.26000213623047 C425.8089904785156,-114.26000213623047 300.9570007324219,-181.0260009765625 80.40399932861328,-116.94100189208984z"></path></g><g opacity="1" transform="matrix(1,0,0,1,461.01800537109375,371.739990234375)"><path fill="rgb(228,0,60)" fill-opacity="1" d=" M-60.73500061035156,-58.87099838256836 C-168.02099609375,22.510000228881836 -214.7220001220703,90.75700378417969 -281.1419982910156,96.19999694824219 C-321.26800537109375,99.48799896240234 -354.0530090332031,79.3499984741211 -354.0530090332031,79.3499984741211 C-354.0530090332031,79.3499984741211 -357.4700012207031,74.2750015258789 -357.4700012207031,74.2750015258789 C-357.4700012207031,74.2750015258789 -357.4700012207031,74.27400207519531 -357.4700012207031,74.27400207519531 C-357.4700012207031,74.27400207519531 -333.9079895019531,124.22100067138672 -294.4679870605469,142.83700561523438 C-255.0279998779297,161.4530029296875 -166.9980010986328,156.2259979248047 -92.54000091552734,78.14700317382812 C-39.74800109863281,22.78700065612793 54.52299880981445,-41.36199951171875 196.22500610351562,-24.51099967956543 C374.7909851074219,-3.2760000228881836 389.24700927734375,35.233001708984375 389.24700927734375,35.233001708984375 C389.24700927734375,35.233001708984375 404.5660095214844,-97.2770004272461 404.5660095214844,-97.2770004272461 C248.31100463867188,-125.61799621582031 73.03399658203125,-160.33999633789062 -60.73500061035156,-58.87099838256836z"></path></g></g></g></svg>